<?xml version="1.0" encoding="iso-8859-1"?>
<!-- Generator: Adobe Illustrator 18.0.0, SVG Export Plug-In . SVG Version: 6.00 Build 0)  -->
<!DOCTYPE svg PUBLIC "-//W3C//DTD SVG 1.1//EN" "http://www.w3.org/Graphics/SVG/1.1/DTD/svg11.dtd">
<svg version="1.1" id="Capa_1" xmlns="http://www.w3.org/2000/svg" xmlns:xlink="http://www.w3.org/1999/xlink" x="0px" y="0px"
	 viewBox="0 0 484.701 484.701" style="enable-background:new 0 0 484.701 484.701;" xml:space="preserve">
<g>
	<path d="M278.33,225.744l0.436-32.057c0,0-35.872-15.576-36.415-15.867c-0.542,0.291-36.415,15.868-36.415,15.868l0.436,32.056
		c0.111,8.191-4.289,15.389-10.895,19.241v220.152c0,10.804,8.76,19.564,19.565,19.564c0.237,0,0.475-0.004,0.714-0.013
		c10.601-0.378,18.85-9.412,18.85-20.02V359.085c0-4.125,3.113-7.728,7.23-7.994c0.173-0.011,0.345-0.017,0.515-0.017
		c4.278,0,7.746,3.468,7.746,7.745v106.318c0,10.804,8.759,19.564,19.564,19.564c0.237,0,0.475-0.004,0.714-0.013
		c10.601-0.377,18.85-9.413,18.85-20.021V244.985C282.619,241.133,278.219,233.935,278.33,225.744z M258.553,258.568l-11.392,11.39
		c-2.657,2.657-6.964,2.657-9.622,0l-11.392-11.39c-1.715-1.717-2.389-4.217-1.764-6.563l10.924-41.016
		c-3.203-0.056-5.785-2.667-5.785-5.884v-13.874c0-3.253,2.638-5.889,5.89-5.889h13.875c3.253,0,5.891,2.636,5.891,5.889v13.874
		c0,3.217-2.581,5.827-5.785,5.884l10.923,41.016C260.942,254.351,260.27,256.852,258.553,258.568z"/>
	<path d="M356.118,133.982c-8.101-1.343-15.755,4.135-17.097,12.236l-8.387,50.599l-8.022-3.363l-0.435,32.059l14.303,5.995
		c1.843,0.773,3.797,1.156,5.746,1.156c2.484,0,4.962-0.622,7.191-1.854c3.978-2.199,6.733-6.097,7.476-10.582l11.461-69.148
		C369.697,142.98,364.219,135.324,356.118,133.982z"/>
	<path d="M154.066,196.327l-8.386-50.599c-1.342-8.1-8.991-13.584-17.098-12.236c-8.101,1.342-13.579,8.997-12.236,17.098
		l11.46,69.148c0.743,4.485,3.497,8.383,7.477,10.582c2.229,1.232,4.706,1.854,7.191,1.854c1.949,0,3.903-0.383,5.746-1.156
		l14.297-5.993l-0.435-32.059L154.066,196.327z"/>
	<circle cx="242.352" cy="31.305" r="31.305"/>
	<path d="M326.335,67.338l15.81-43.294c2.611-7.151-1.068-15.064-8.22-17.676c-7.147-2.609-15.064,1.069-17.675,8.22l-13.849,37.924
		L267.12,68.875l-49.538,0l-35.281-16.363l-13.851-37.924c-2.612-7.151-10.525-10.83-17.676-8.219
		c-7.15,2.611-10.83,10.525-8.219,17.676l15.812,43.295c1.256,3.438,3.827,6.236,7.147,7.776l41.997,19.478v3.269
		c8.5-9.696,20.963-15.835,34.839-15.835c13.876,0,26.339,6.14,34.838,15.836v-3.269l41.998-19.479
		C322.508,73.574,325.08,70.776,326.335,67.338z"/>
	<path d="M306.673,166.011l-26.197-11.35c-6.732,9.73-17.082,16.77-29.094,19.152l34.798,15.076l-0.501,36.953
		c-0.109,8.046,6.325,14.657,14.371,14.767c0.067,0.001,0.134,0.001,0.201,0.001c7.954,0,14.456-6.394,14.564-14.372l0.633-46.661
		C315.529,173.699,312.067,168.349,306.673,166.011z"/>
	<path d="M198.52,188.89l34.799-15.076c-12.011-2.383-22.362-9.423-29.094-19.152l-26.197,11.35
		c-5.395,2.337-8.856,7.688-8.776,13.567l0.633,46.661c0.108,7.979,6.609,14.372,14.564,14.372c0.067,0,0.134,0,0.201-0.001
		c8.046-0.109,14.48-6.72,14.371-14.767L198.52,188.89z"/>
	<path d="M242.351,167.032c21.359,0,38.666-17.309,38.666-38.667c0-21.359-17.307-38.667-38.666-38.667
		s-38.668,17.308-38.668,38.667C203.683,149.723,220.992,167.032,242.351,167.032z"/>
</g>
<g>
</g>
<g>
</g>
<g>
</g>
<g>
</g>
<g>
</g>
<g>
</g>
<g>
</g>
<g>
</g>
<g>
</g>
<g>
</g>
<g>
</g>
<g>
</g>
<g>
</g>
<g>
</g>
<g>
</g>
</svg>
