<?xml version="1.0" encoding="iso-8859-1"?>
<!-- Generator: Adobe Illustrator 19.1.0, SVG Export Plug-In . SVG Version: 6.00 Build 0)  -->
<svg version="1.1" id="Capa_1" xmlns="http://www.w3.org/2000/svg" xmlns:xlink="http://www.w3.org/1999/xlink" x="0px" y="0px"
	 viewBox="0 0 439.801 439.801" style="enable-background:new 0 0 439.801 439.801;" xml:space="preserve">
<g>
	<polygon style="fill:#C4806E;" points="189.151,205.1 197.59,194.473 191.789,112.219 186.513,112.219 180.713,194.473 	"/>
	<path style="fill:#E5CBBD;" d="M194.623,93.64l7.018-13.682v-3.99c-3.456,1.85-7.584,2.73-12.483,2.732c-0.001,0-0.002,0-0.002,0
		h-0.01c0,0,0,0-0.001,0c-4.899-0.002-9.026-0.882-12.483-2.732v3.99l7.018,13.682H194.623z"/>
	<path style="fill:#D8D5D4;" d="M195.77,46.108c0,2.248,2.061,4.076,4.593,4.076h5.277c2.533,0,4.594-1.828,4.594-4.076v-3.124
		H195.77V46.108z M201.24,44.82c0.92-0.93,2.6-0.93,3.53,0c0.47,0.46,0.729,1.1,0.729,1.76c0,0.66-0.26,1.3-0.729,1.77
		c-0.46,0.47-1.11,0.73-1.771,0.73c-0.66,0-1.3-0.26-1.77-0.73c-0.46-0.46-0.73-1.11-0.73-1.77
		C200.5,45.92,200.77,45.28,201.24,44.82z"/>
	<path style="fill:#E5DE9E;" d="M206.365,81.703l-6.739,13.138l12.424,4.986l-0.849-16.095l-4.742-2.281
		C206.427,81.535,206.406,81.623,206.365,81.703z"/>
	<path style="fill:#E5CBBD;" d="M189.151,73.7c9.556-0.001,16.733-3.402,20.382-19.305c-1.191,0.503-2.507,0.788-3.893,0.788h-5.277
		c-5.289,0-9.593-4.071-9.593-9.076v-3.124h-3.239v3.124c0,5.004-4.304,9.076-9.593,9.076h-5.277c-1.387,0-2.701-0.286-3.893-0.788
		C172.418,70.298,179.595,73.699,189.151,73.7z M182.674,60.816c1.175,0,2.161,0.811,2.429,1.903
		c0.486,0.299,1.872,0.819,4.049,0.819c2.176,0,3.562-0.52,4.049-0.82c0.268-1.092,1.254-1.903,2.429-1.903
		c1.381,0,2.5,1.119,2.5,2.5c0,3.075-3.691,5.223-8.978,5.223c-5.286,0-8.978-2.147-8.978-5.223
		C180.174,61.935,181.293,60.816,182.674,60.816z"/>
	<path style="fill:#E5CBBD;" d="M206.093,22.716c-0.068-0.065-0.128-0.11-0.171-0.139c-0.347,0.089-1.115,0.504-1.743,0.844
		c-2.599,1.405-6.947,3.755-15.021,3.757c-0.001,0-0.002,0-0.002,0h-0.01c0,0,0,0-0.001,0c-8.073-0.002-12.422-2.352-15.02-3.757
		c-0.627-0.338-1.393-0.752-1.741-0.843c-0.051,0.037-0.13,0.102-0.237,0.209c-0.838,1.208-1.574,8.189-1.062,15.197h36.134
		C207.73,30.977,206.989,23.99,206.093,22.716z"/>
	<path style="fill:#D8D5D4;" d="M172.661,50.184h5.277c2.532,0,4.593-1.828,4.593-4.076v-3.124h-14.464v3.124
		C168.067,48.356,170.128,50.184,172.661,50.184z M173.53,44.82c0.93-0.93,2.6-0.93,3.54,0c0.46,0.46,0.73,1.1,0.73,1.76
		c0,0.66-0.27,1.31-0.739,1.77c-0.46,0.47-1.101,0.73-1.761,0.73c-0.659,0-1.3-0.26-1.77-0.73c-0.47-0.46-0.73-1.11-0.73-1.77
		C172.8,45.93,173.06,45.28,173.53,44.82z"/>
	<path style="fill:#736357;" d="M168.61,19.252c2.917-2.917,5.675-1.427,7.891-0.229c2.463,1.331,5.838,3.155,12.65,3.156
		c6.812-0.001,10.186-1.825,12.649-3.156c2.216-1.198,4.972-2.691,7.891,0.229c2.723,2.723,2.916,12.556,2.53,18.732h0.513
		c1.381,0,2.5,1.119,2.5,2.5v4.714c1.673-3.541,2.996-10.499,0.83-24.028c-1.331-8.315-2.589-16.169-26.913-16.17
		c-24.325,0.001-25.582,7.855-26.913,16.17c-2.166,13.529-0.844,20.487,0.829,24.027v-4.713c0-1.381,1.119-2.5,2.5-2.5h0.513
		C165.695,31.808,165.888,21.974,168.61,19.252z"/>
	<rect x="186.152" y="223.024" style="fill:#736357;" width="5.997" height="3.901"/>
	<path style="fill:#E5CBBD;" d="M274.178,205.722c-2.636,0-5.179-0.487-7.578-1.385c-0.155,0.562-0.498,1.055-0.976,1.39
		c0.39,0.599,0.991,1.178,1.786,1.687c1.774,1.139,4.231,1.808,6.763,1.783h0.005c0.016-0.001,0.026,0,0.037,0
		c4.065,0,7.313-1.629,8.516-3.471c-0.478-0.335-0.82-0.827-0.975-1.388C279.356,205.235,276.813,205.722,274.178,205.722z"/>
	<path style="fill:#E5DE9E;" d="M171.936,81.703c-0.041-0.08-0.062-0.168-0.094-0.252l-4.791,2.305l-0.855,16.905l12.535-5.71
		L171.936,81.703z"/>
	<path style="fill:#E5CBBD;" d="M270.133,171.371l-3.77-6.004l-3.77,6.004c-0.457,0.729-1.257,1.171-2.117,1.171h-7.345
		c-0.007,0.388-0.015,0.773-0.015,1.169c0,14.895,9.447,27.012,21.06,27.012c11.614,0,21.062-12.117,21.062-27.012
		c0-0.396-0.008-0.781-0.015-1.169H272.25C271.39,172.542,270.59,172.1,270.133,171.371z M262.63,180.11
		c-0.47-0.46-0.739-1.11-0.739-1.77c0-0.66,0.27-1.3,0.739-1.76c0.92-0.93,2.601-0.94,3.53,0c0.47,0.46,0.74,1.1,0.74,1.76
		c0,0.66-0.271,1.3-0.74,1.77c-0.46,0.47-1.11,0.73-1.77,0.73C263.74,180.84,263.09,180.58,262.63,180.11z M282.19,176.53
		c0.93-0.93,2.6-0.93,3.54,0c0.46,0.47,0.729,1.11,0.729,1.77s-0.27,1.3-0.729,1.77c-0.471,0.46-1.11,0.73-1.771,0.73
		c-0.66,0-1.3-0.27-1.77-0.73c-0.46-0.47-0.73-1.11-0.73-1.77S281.73,177,282.19,176.53z M274.178,190.361
		c1.793-0.004,3.017-0.366,3.526-0.62c0.34-0.972,1.264-1.671,2.353-1.674c0.003,0,0.005,0,0.008,0c1.377,0,2.496,1.114,2.5,2.492
		c0.003,0.993-0.423,2.827-3.312,3.954c-1.393,0.543-3.19,0.844-5.064,0.848c-0.015,0-0.029,0-0.044,0
		c-4.989,0-8.345-1.911-8.354-4.761c-0.004-1.381,1.111-2.503,2.492-2.508c0.003,0,0.005,0,0.008,0c1.087,0,2.013,0.694,2.357,1.664
		c0.508,0.25,1.723,0.605,3.5,0.605C274.158,190.361,274.168,190.361,274.178,190.361z"/>
	<path style="fill:#E5DE9E;" d="M243.22,208.445c1.627-0.855,3.458-1.564,5.527-2.047l12.946-4.494v-0.103
		c-8.083-5.442-13.576-15.993-13.576-28.091c0-11.681,2.698-19.344,6.461-24.366l-7.215-36.784
		c-0.017-0.086-0.029-0.173-0.037-0.261c-0.035-0.362-0.583-5.262-4.319-10.48l-13.317,38.231L243.22,208.445z"/>
	<path style="fill:#736357;" d="M259.094,167.542l5.152-8.206c0.734-1.171,2.278-1.521,3.446-0.788
		c0.33,0.207,0.588,0.483,0.781,0.792l0.007-0.004l5.152,8.206h21.31c-1.486-14.744-8.586-22.491-20.765-22.491
		c-12.178,0-19.276,7.747-20.763,22.491H259.094z"/>
	<polygon style="fill:#C4806E;" points="192.592,107.219 196.767,99.082 195.667,98.64 182.693,98.64 181.57,99.152 185.71,107.219 
			"/>
	<rect x="197.149" y="223.024" style="fill:#C7B299;" width="27.456" height="3.901"/>
	<path style="fill:#E5DE9E;" d="M196.662,110.24l5.984,84.851c0.044,0.624-0.147,1.241-0.536,1.73l-10.464,13.177v8.026h32.959
		v-78.157c0-0.055,0.012-0.107,0.015-0.161c0.006-0.08,0.01-0.159,0.023-0.239c0.015-0.094,0.04-0.184,0.065-0.274
		c0.014-0.049,0.019-0.099,0.035-0.148l14.446-41.473c-3.174-2.841-7.572-5.424-13.676-7.008c-0.157-0.041-9.177-4.361-9.177-4.361
		l0.911,17.271c0.045,0.853-0.348,1.669-1.042,2.165c-0.431,0.308-0.94,0.467-1.454,0.467c-0.314,0-0.631-0.059-0.931-0.18
		l-12.394-4.974L196.662,110.24z"/>
	<path style="fill:#A6D9FF;" d="M236.029,225.419c-0.008,0.04-0.018,0.08-0.028,0.12l-4.727,17.909l12.598,7.452l2.359-7.358
		l-7.998-23.431C236.58,222.961,236.04,225.366,236.029,225.419z"/>
	<polygon style="fill:#E5CBBD;" points="282.147,365.09 282.128,423.126 293.046,423.126 296.054,365.09 	"/>
	<path style="fill:#C69C6D;" d="M282.126,428.126l-0.002,6.675h20.025c-0.223-1.548-0.768-3.538-2.084-4.927
		c-1.109-1.172-2.631-1.744-4.651-1.748H282.126z"/>
	<path style="fill:#B7C16F;" d="M252.274,308.079l-5.533,52.011h21.702l3.244-37.104c0.119-1.376,1.342-2.391,2.708-2.273
		c1.227,0.107,2.163,1.085,2.267,2.272l0.006,0l3.27,37.105h21.677l-5.533-52.011H252.274z"/>
	<polygon style="fill:#E5CBBD;" points="266.229,423.126 266.21,365.09 252.302,365.09 255.311,423.126 	"/>
	<path style="fill:#E5CBBD;" d="M218.117,308.515c-0.186,0.83-0.038,1.674,0.413,2.385c0.451,0.711,1.152,1.204,1.974,1.387
		s1.666,0.037,2.379-0.414c0.711-0.451,1.204-1.152,1.388-1.974c0.013-0.061,0.029-0.121,0.047-0.18l16.584-54.767l-9.73-5.756
		L218.117,308.515z"/>
	<path style="fill:#C69C6D;" d="M252.943,428.126c-2.021,0.004-3.543,0.576-4.652,1.749c-1.315,1.389-1.861,3.378-2.085,4.927
		h20.027l-0.002-6.675H252.943z"/>
	<path style="fill:#A6D9FF;" d="M298.363,211.241c-0.09-0.02-10.905-3.769-10.905-3.769c-1.902,3.909-7.114,6.724-13.243,6.724
		h-0.074c-3.493,0-6.84-0.913-9.43-2.573c-1.763-1.13-3.061-2.565-3.822-4.147c0,0-10.805,3.745-10.895,3.765
		c-3.437,0.782-6.064,2.375-8.066,4.219l9.303,27.25c0.014,0.039,0.017,0.079,0.027,0.119c0.028,0.096,0.053,0.193,0.068,0.294
		c0.011,0.068,0.017,0.135,0.022,0.202c0.003,0.049,0.015,0.096,0.016,0.146l1.114,59.607h43.396l1.114-59.607
		c0.001-0.048,0.012-0.094,0.016-0.143c0.005-0.069,0.011-0.138,0.022-0.207c0.016-0.1,0.04-0.195,0.068-0.291
		c0.011-0.04,0.014-0.081,0.027-0.12l9.311-27.273C304.436,213.607,301.807,212.025,298.363,211.241z"/>
	<path style="fill:#E5CBBD;" d="M109.54,242.899c-0.233,1.796,0.248,3.581,1.355,5.02c1.108,1.439,2.71,2.361,4.511,2.595
		c1.8,0.232,3.586-0.247,5.025-1.355c1.439-1.108,2.361-2.71,2.595-4.511c0.01-0.069,0.021-0.138,0.036-0.206l1.571-7.278h-14.337
		L109.54,242.899z"/>
	<path style="fill:#A6D9FF;" d="M312.354,225.539c-0.011-0.04-0.021-0.08-0.028-0.12c-0.046-0.208-0.591-2.567-2.192-5.336
		l-8.01,23.46l2.36,7.358l12.597-7.452L312.354,225.539z"/>
	<path style="fill:#E5CBBD;" d="M317.185,249.196l-9.73,5.757l16.584,54.767c0.018,0.06,0.034,0.12,0.048,0.18
		c0.183,0.821,0.675,1.522,1.387,1.973c0.711,0.452,1.558,0.597,2.377,0.415c0.823-0.184,1.523-0.676,1.975-1.387
		c0.451-0.711,0.599-1.555,0.415-2.377L317.185,249.196z"/>
	<path style="fill:#E5DE9E;" d="M153.593,139.192c0.025,0.09,0.051,0.181,0.065,0.274c0.014,0.081,0.018,0.16,0.023,0.239
		c0.004,0.054,0.016,0.106,0.016,0.161v78.157h32.95v-8.038l-10.454-13.165c-0.389-0.49-0.58-1.107-0.536-1.73l5.983-84.851
		l-4.625-9.013l-12.487,5.689c-0.33,0.151-0.684,0.225-1.036,0.225c-0.493,0-0.984-0.146-1.405-0.433
		c-0.722-0.49-1.136-1.322-1.092-2.194l0.926-18.29c0,0-8.975,4.299-9.132,4.34c-6.104,1.584-10.501,4.167-13.676,7.008
		l14.445,41.473C153.575,139.094,153.579,139.143,153.593,139.192z"/>
	<rect x="153.696" y="223.024" style="fill:#C7B299;" width="27.456" height="3.901"/>
	<path style="fill:#E5DE9E;" d="M130.974,112.31c-0.008,0.08-0.021,0.171-0.036,0.25L110.02,219.215h22.931l15.661-79.166
		l-13.316-38.23C131.559,107.039,131.011,111.942,130.974,112.31z"/>
	<polygon style="fill:#E5DE9E;" points="110.398,232.164 126.268,232.164 130.733,224.215 109.709,224.215 	"/>
	<path style="fill:#999999;" d="M221.642,422.471h-21v12.33h32.429c-0.222-2.549-0.994-6.614-3.588-9.35
		C227.582,423.446,225.016,422.471,221.642,422.471z"/>
	<path style="fill:#999999;" d="M148.804,425.467c-2.564,2.717-3.339,6.783-3.565,9.333h32.422v-12.33h-21
		C153.277,422.471,150.707,423.451,148.804,425.467z"/>
	<path style="fill:#736357;" d="M224.605,316.611c-1.071,0.497-2.225,0.755-3.396,0.755c-0.598,0-1.198-0.066-1.796-0.199
		c-2.124-0.475-3.938-1.749-5.104-3.587c-1.167-1.839-1.548-4.022-1.072-6.148l11.369-51.662v-23.844h-70.909v185.545h24.098
		l8.865-161.277h0.004c0.068-1.256,1.061-2.288,2.346-2.359c1.409-0.077,2.559,0.98,2.634,2.359l8.866,161.277h24.097V316.611z"/>
	<path style="fill:#1C1B1A;" d="M268.291,188.092c-0.003,0-0.005,0-0.008,0c-1.381,0.004-2.496,1.127-2.492,2.508
		c0.009,2.851,3.364,4.761,8.354,4.761c0.015,0,0.029,0,0.044,0c1.874-0.004,3.672-0.305,5.064-0.848
		c2.889-1.127,3.314-2.961,3.312-3.954c-0.004-1.378-1.123-2.492-2.5-2.492c-0.003,0-0.005,0-0.008,0
		c-1.089,0.003-2.013,0.702-2.353,1.674c-0.51,0.253-1.733,0.616-3.526,0.62c-0.01,0-0.02,0-0.03,0c-1.777,0-2.992-0.355-3.5-0.605
		C270.304,188.786,269.378,188.092,268.291,188.092z"/>
	<path style="fill:#1C1B1A;" d="M266.9,178.34c0-0.66-0.271-1.3-0.74-1.76c-0.93-0.94-2.61-0.93-3.53,0
		c-0.47,0.46-0.739,1.1-0.739,1.76c0,0.66,0.27,1.31,0.739,1.77c0.46,0.47,1.11,0.73,1.761,0.73c0.659,0,1.31-0.26,1.77-0.73
		C266.63,179.64,266.9,179,266.9,178.34z"/>
	<path style="fill:#1C1B1A;" d="M283.96,180.8c0.66,0,1.3-0.27,1.771-0.73c0.46-0.47,0.729-1.11,0.729-1.77s-0.27-1.3-0.729-1.77
		c-0.941-0.93-2.61-0.93-3.54,0c-0.46,0.47-0.73,1.11-0.73,1.77s0.271,1.3,0.73,1.77C282.66,180.53,283.3,180.8,283.96,180.8z"/>
	<path style="fill:#1C1B1A;" d="M189.151,68.539c5.286,0,8.978-2.147,8.978-5.223c0-1.381-1.119-2.5-2.5-2.5
		c-1.175,0-2.161,0.811-2.429,1.903c-0.486,0.3-1.873,0.82-4.049,0.82c-2.177,0-3.562-0.52-4.049-0.819
		c-0.268-1.093-1.254-1.903-2.429-1.903c-1.381,0-2.5,1.119-2.5,2.5C180.174,66.391,183.865,68.539,189.151,68.539z"/>
	<path style="fill:#1C1B1A;" d="M175.3,49.08c0.66,0,1.301-0.26,1.761-0.73c0.47-0.46,0.739-1.11,0.739-1.77
		c0-0.66-0.27-1.3-0.73-1.76c-0.94-0.93-2.61-0.93-3.54,0c-0.47,0.46-0.73,1.11-0.73,1.76c0,0.66,0.261,1.31,0.73,1.77
		C174,48.82,174.64,49.08,175.3,49.08z"/>
	<path style="fill:#1C1B1A;" d="M203,49.08c0.66,0,1.311-0.26,1.771-0.73c0.47-0.47,0.729-1.11,0.729-1.77
		c0-0.66-0.26-1.3-0.729-1.76c-0.931-0.93-2.61-0.93-3.53,0c-0.47,0.46-0.74,1.1-0.74,1.76c0,0.66,0.271,1.31,0.73,1.77
		C201.7,48.82,202.34,49.08,203,49.08z"/>
	<path style="fill:#1C1B1A;" d="M321.698,246.443c0.65-0.619,0.936-1.548,0.699-2.444l-5.195-19.687
		c-0.275-1.226-3.602-14.65-17.592-17.915l-12.948-4.494v-0.102c8.084-5.442,13.578-15.993,13.578-28.092
		c0-30.379-18.226-33.659-26.062-33.659c-3.774,0-9.958,0.771-15.355,4.957l-6.53-33.297c-0.218-1.97-2.814-19.972-25.283-25.923
		L206.64,75.99v-3.863c3.953-4.189,6.632-10.478,8.308-19.171c3.379-1.86,9.891-8.606,6.054-32.577
		C219.282,9.642,215.553,0.002,189.156,0h-0.01h-0.001c-26.397,0.002-30.126,9.642-31.845,20.38
		c-3.837,23.97,2.674,30.715,6.053,32.576c1.676,8.693,4.355,14.982,8.308,19.171v3.863l-20.368,9.797
		c-22.469,5.951-25.065,23.953-25.283,25.923c0,0-21.538,109.988-21.518,110.221l1.099,12.674l-1.009,7.644
		c-0.406,3.125,0.429,6.222,2.352,8.719c1.923,2.498,4.703,4.097,7.828,4.503c0.518,0.067,1.033,0.101,1.547,0.101
		c2.587,0,5.089-0.847,7.173-2.452c2.469-1.9,4.059-4.638,4.489-7.719l2.124-9.841l7.09-12.621
		c0.13-0.23,11.512-57.552,11.512-57.552v253.937c-1.306,0.705-2.485,1.606-3.528,2.711c-5.49,5.816-5.026,15.021-5.004,15.41
		c0.076,1.323,1.171,2.356,2.496,2.356h37.5c1.381,0,2.5-1.119,2.5-2.5v-17.264l6.491-118.082l6.491,118.082v17.264
		c0,1.381,1.119,2.5,2.5,2.5h37.5c1.325,0,2.42-1.033,2.496-2.356c0.022-0.389,0.486-9.594-5.004-15.41
		c-1.043-1.105-2.224-2.006-3.529-2.711V309.507l15.86-52.378c0.243-0.017,1.012-0.272,1.146-0.356l0.91,48.697l-6.048,56.855
		c-0.074,0.705,0.153,1.409,0.627,1.936c0.475,0.527,1.15,0.828,1.859,0.828h3.333l3.023,58.281
		c-2.259,0.441-4.163,1.476-5.684,3.093c-3.922,4.173-3.579,10.71-3.562,10.986c0.078,1.321,1.172,2.351,2.495,2.351h25.168
		c0.663,0,1.299-0.264,1.769-0.732c0.469-0.469,0.731-1.105,0.731-1.769l-0.004-11.674v0v-0.001l-0.021-60.581
		c1.076-0.207,1.916-1.107,2.015-2.237l0.963-11.014l0.971,11.015c0.099,1.12,0.926,2.011,1.989,2.228l-0.021,60.588v0.001v0
		l-0.004,11.674c0,0.663,0.263,1.299,0.731,1.769c0.47,0.469,1.105,0.732,1.769,0.732h25.166c1.322,0,2.417-1.03,2.495-2.351
		c0.017-0.276,0.36-6.814-3.562-10.987c-1.52-1.617-3.423-2.652-5.682-3.093l3.022-58.281h3.333c0.709,0,1.385-0.301,1.859-0.828
		c0.474-0.527,0.701-1.231,0.627-1.936l-6.048-56.855l0.91-48.698c0.135,0.084,0.904,0.34,1.146,0.356l16.34,53.959
		c0.491,2.083,1.754,3.858,3.564,5.007c1.323,0.839,2.824,1.272,4.353,1.272c0.597,0,1.198-0.066,1.795-0.199
		c2.125-0.475,3.939-1.749,5.105-3.588c1.167-1.839,1.548-4.022,1.074-6.139L321.698,246.443z M295.24,173.711
		c0,14.895-9.448,27.012-21.062,27.012c-11.613,0-21.06-12.117-21.06-27.012c0-0.396,0.008-0.781,0.015-1.169h7.345
		c0.86,0,1.66-0.442,2.117-1.171l3.77-6.004l3.77,6.004c0.457,0.729,1.257,1.171,2.117,1.171h22.976
		C295.232,172.93,295.24,173.315,295.24,173.711z M282.73,205.726c-1.202,1.841-4.45,3.471-8.516,3.471
		c-0.011,0-0.021-0.001-0.037,0h-0.005c-2.531,0.025-4.988-0.644-6.763-1.783c-0.795-0.509-1.396-1.088-1.786-1.687
		c0.478-0.335,0.82-0.828,0.976-1.39c2.399,0.898,4.942,1.385,7.578,1.385c2.636,0,5.179-0.487,7.578-1.384
		C281.91,204.899,282.253,205.392,282.73,205.726z M274.178,145.051c12.179,0,19.278,7.747,20.765,22.491h-21.31l-5.152-8.206
		l-0.007,0.004c-0.193-0.309-0.451-0.585-0.781-0.792c-1.168-0.733-2.712-0.383-3.446,0.788l-5.152,8.206h-5.679
		C254.901,152.798,262,145.051,274.178,145.051z M247.326,112.299c0.008,0.087,0.021,0.175,0.037,0.261l7.215,36.784
		c-3.763,5.022-6.461,12.685-6.461,24.366c0,12.099,5.493,22.649,13.576,28.091v0.103l-12.946,4.494
		c-2.069,0.483-3.9,1.192-5.527,2.047l-13.53-68.396l13.317-38.231C246.743,107.037,247.291,111.937,247.326,112.299z
		 M238.739,211.562c-5.718,5.134-7.394,11.897-7.586,12.751l-1.548,5.865v-64.79L238.739,211.562z M214.753,106.106
		c0.514,0,1.023-0.159,1.454-0.467c0.694-0.497,1.087-1.312,1.042-2.165l-0.911-17.271c0,0,9.02,4.321,9.177,4.361
		c6.104,1.584,10.502,4.167,13.676,7.008l-14.446,41.473c-0.017,0.049-0.021,0.099-0.035,0.148c-0.025,0.09-0.051,0.18-0.065,0.274
		c-0.014,0.08-0.018,0.159-0.023,0.239c-0.003,0.054-0.015,0.106-0.015,0.161v78.157h-32.959v-8.026l10.464-13.177
		c0.389-0.49,0.58-1.107,0.536-1.73l-5.984-84.851l4.767-9.288l12.394,4.974C214.122,106.047,214.438,106.106,214.753,106.106z
		 M224.605,223.024v3.901h-27.456v-3.901H224.605z M182.693,98.64h12.974l1.101,0.442l-4.176,8.137h-6.882l-4.14-8.067
		L182.693,98.64z M176.661,79.959v-3.99c3.457,1.85,7.584,2.73,12.483,2.732c0.001,0,0.001,0,0.001,0h0.01c0,0,0.001,0,0.002,0
		c4.9-0.002,9.027-0.882,12.483-2.732v3.99l-7.018,13.682h-10.944L176.661,79.959z M186.513,112.219h5.276l5.801,82.254
		l-8.439,10.627l-8.438-10.627L186.513,112.219z M192.149,223.024v3.901h-5.997v-3.901H192.149z M211.201,83.732l0.849,16.095
		l-12.424-4.986l6.739-13.138c0.041-0.08,0.062-0.168,0.094-0.252L211.201,83.732z M210.234,46.108c0,2.248-2.061,4.076-4.594,4.076
		h-5.277c-2.532,0-4.593-1.828-4.593-4.076v-3.124h14.464V46.108z M171.084,37.984c-0.513-7.008,0.224-13.989,1.062-15.197
		c0.107-0.107,0.186-0.172,0.237-0.209c0.349,0.09,1.114,0.504,1.741,0.843c2.599,1.405,6.947,3.755,15.02,3.757
		c0.001,0,0.001,0,0.001,0h0.01c0,0,0.001,0,0.002,0c8.074-0.002,12.423-2.352,15.021-3.757c0.628-0.339,1.397-0.755,1.743-0.844
		c0.043,0.029,0.102,0.074,0.171,0.139c0.896,1.274,1.638,8.26,1.125,15.268H171.084z M165.567,37.984c-1.381,0-2.5,1.119-2.5,2.5
		v4.713c-1.673-3.541-2.995-10.499-0.829-24.027c1.331-8.315,2.588-16.169,26.913-16.17c24.324,0.001,25.582,7.855,26.913,16.17
		c2.166,13.53,0.843,20.488-0.83,24.028v-4.714c0-1.381-1.119-2.5-2.5-2.5h-0.513c0.386-6.176,0.192-16.01-2.53-18.732
		c-2.919-2.92-5.675-1.427-7.891-0.229c-2.464,1.331-5.837,3.155-12.649,3.156c-6.812-0.001-10.188-1.825-12.65-3.156
		c-2.216-1.197-4.974-2.687-7.891,0.229c-2.723,2.722-2.915,12.556-2.53,18.732H165.567z M168.067,42.984h14.464v3.124
		c0,2.248-2.061,4.076-4.593,4.076h-5.277c-2.533,0-4.594-1.828-4.594-4.076V42.984z M168.768,54.396
		c1.191,0.503,2.506,0.788,3.893,0.788h5.277c5.289,0,9.593-4.071,9.593-9.076v-3.124h3.239v3.124c0,5.004,4.304,9.076,9.593,9.076
		h5.277c1.386,0,2.701-0.286,3.893-0.788c-3.648,15.902-10.826,19.304-20.382,19.305C179.595,73.699,172.418,70.298,168.768,54.396z
		 M167.052,83.756l4.791-2.305c0.032,0.084,0.053,0.172,0.094,0.252l6.795,13.248l-12.535,5.71L167.052,83.756z M123.062,244.442
		c-0.015,0.068-0.026,0.137-0.036,0.206c-0.233,1.801-1.155,3.403-2.595,4.511c-1.439,1.108-3.226,1.587-5.025,1.355
		c-1.801-0.234-3.402-1.156-4.511-2.595c-1.107-1.439-1.589-3.224-1.355-5.02l0.757-5.735h14.337L123.062,244.442z M126.268,232.164
		h-15.87l-0.689-7.949h21.024L126.268,232.164z M132.951,219.215H110.02l20.918-106.655c0.016-0.08,0.028-0.17,0.036-0.25
		c0.036-0.368,0.585-5.271,4.321-10.491l13.316,38.23L132.951,219.215z M139.112,97.572c3.175-2.841,7.572-5.424,13.676-7.008
		c0.157-0.041,9.132-4.34,9.132-4.34l-0.926,18.29c-0.044,0.872,0.37,1.704,1.092,2.194c0.421,0.287,0.912,0.433,1.405,0.433
		c0.353,0,0.706-0.074,1.036-0.225l12.487-5.689l4.625,9.013l-5.983,84.851c-0.044,0.624,0.147,1.241,0.536,1.73l10.454,13.165
		v8.038h-32.95v-78.157c0-0.055-0.012-0.107-0.016-0.161c-0.005-0.08-0.009-0.159-0.023-0.239c-0.015-0.094-0.04-0.184-0.065-0.274
		c-0.014-0.049-0.018-0.099-0.035-0.147L139.112,97.572z M181.152,223.024v3.901h-27.456v-3.901H181.152z M177.66,434.801h-32.422
		c0.227-2.55,1.001-6.617,3.565-9.333c1.903-2.017,4.474-2.997,7.857-2.997h21V434.801z M191.642,256.193
		c-0.075-1.378-1.225-2.436-2.634-2.359c-1.285,0.071-2.277,1.103-2.346,2.359h-0.004l-8.865,161.277h-24.098V231.925h70.909v23.844
		l-11.369,51.662c-0.475,2.126-0.095,4.309,1.072,6.148c1.167,1.839,2.98,3.113,5.104,3.587c0.598,0.133,1.198,0.199,1.796,0.199
		c1.172,0,2.325-0.259,3.396-0.755v100.86h-24.097L191.642,256.193z M233.071,434.801h-32.429v-12.33h21
		c3.374,0,5.939,0.975,7.841,2.98C232.077,428.187,232.849,432.252,233.071,434.801z M224.317,309.719
		c-0.018,0.059-0.034,0.119-0.047,0.18c-0.184,0.821-0.677,1.522-1.388,1.974c-0.713,0.452-1.558,0.598-2.379,0.414
		s-1.522-0.676-1.974-1.387c-0.451-0.711-0.599-1.555-0.413-2.385l13.054-59.318l9.73,5.756L224.317,309.719z M243.872,250.9
		l-12.598-7.452l4.727-17.909c0.011-0.04,0.02-0.08,0.028-0.12c0.011-0.053,0.551-2.458,2.204-5.308l7.998,23.431L243.872,250.9z
		 M246.206,434.801c0.224-1.549,0.77-3.538,2.085-4.927c1.109-1.172,2.631-1.744,4.652-1.749h13.288l0.002,6.675H246.206z
		 M252.302,365.09h13.908l0.02,58.036h-10.918L252.302,365.09z M300.065,429.874c1.315,1.39,1.861,3.379,2.084,4.927h-20.025
		l0.002-6.675h13.288C297.434,428.13,298.956,428.702,300.065,429.874z M282.128,423.126l0.02-58.036h13.906l-3.008,58.036H282.128z
		 M301.614,360.09h-21.677l-3.27-37.105l-0.006,0c-0.103-1.187-1.04-2.165-2.267-2.272c-1.366-0.118-2.589,0.897-2.708,2.273
		l-3.244,37.104h-21.702l5.533-52.011h43.807L301.614,360.09z M297.124,242.711c-0.014,0.039-0.017,0.08-0.027,0.12
		c-0.028,0.096-0.053,0.191-0.068,0.291c-0.012,0.069-0.018,0.138-0.022,0.207c-0.004,0.048-0.015,0.094-0.016,0.143l-1.114,59.607
		h-43.396l-1.114-59.607c-0.001-0.05-0.013-0.097-0.016-0.146c-0.006-0.067-0.012-0.134-0.022-0.202
		c-0.016-0.101-0.04-0.197-0.068-0.294c-0.011-0.04-0.014-0.08-0.027-0.119l-9.303-27.25c2.001-1.844,4.629-3.438,8.066-4.219
		c0.09-0.02,10.895-3.765,10.895-3.765c0.761,1.582,2.06,3.018,3.822,4.147c2.59,1.66,5.937,2.573,9.43,2.573h0.074
		c6.129,0,11.341-2.815,13.243-6.724c0,0,10.815,3.749,10.905,3.769c3.444,0.784,6.073,2.365,8.071,4.197L297.124,242.711z
		 M302.124,243.543l8.01-23.46c1.602,2.769,2.146,5.128,2.192,5.336c0.008,0.04,0.018,0.08,0.028,0.12l4.727,17.909l-12.597,7.452
		L302.124,243.543z M329.825,310.9c-0.451,0.711-1.151,1.203-1.975,1.387c-0.819,0.182-1.666,0.037-2.377-0.415
		c-0.712-0.451-1.204-1.152-1.387-1.973c-0.014-0.06-0.029-0.121-0.048-0.18l-16.584-54.767l9.73-5.757l13.055,59.328
		C330.424,309.345,330.276,310.19,329.825,310.9z"/>
</g>
<g>
</g>
<g>
</g>
<g>
</g>
<g>
</g>
<g>
</g>
<g>
</g>
<g>
</g>
<g>
</g>
<g>
</g>
<g>
</g>
<g>
</g>
<g>
</g>
<g>
</g>
<g>
</g>
<g>
</g>
</svg>
